<mxfile host="app.diagrams.net" modified="2021-08-06T03:07:34.752Z" agent="5.0 (Windows NT 10.0; Win64; x64) AppleWebKit/537.36 (KHTML, like Gecko) Chrome/92.0.4515.107 Safari/537.36 Edg/92.0.902.62" etag="8Z8jTFoN9anZZZ3jkqSr" version="14.9.4" type="github">
  <diagram id="kZeHxRit4yLpcE9CeEfN" name="Page-1">
    <mxGraphModel dx="1109" dy="598" grid="1" gridSize="10" guides="1" tooltips="1" connect="1" arrows="1" fold="1" page="1" pageScale="1" pageWidth="3300" pageHeight="4681" math="0" shadow="0">
      <root>
        <mxCell id="0" />
        <mxCell id="1" parent="0" />
        <mxCell id="YpFx3Wl4ijLkh08jpPSe-230" value="" style="ellipse;whiteSpace=wrap;html=1;aspect=fixed;rounded=1;shadow=0;strokeColor=#d6b656;strokeWidth=1;fillColor=#fff2cc;" vertex="1" parent="1">
          <mxGeometry x="247.5" y="390" width="330" height="330" as="geometry" />
        </mxCell>
        <mxCell id="YpFx3Wl4ijLkh08jpPSe-178" value="" style="whiteSpace=wrap;html=1;aspect=fixed;rounded=1;shadow=0;strokeColor=#d6b656;strokeWidth=1;fillColor=#fff2cc;" vertex="1" parent="1">
          <mxGeometry x="460" y="2420" width="170" height="170" as="geometry" />
        </mxCell>
        <mxCell id="YpFx3Wl4ijLkh08jpPSe-187" style="edgeStyle=orthogonalEdgeStyle;rounded=0;orthogonalLoop=1;jettySize=auto;html=1;" edge="1" parent="1" source="YpFx3Wl4ijLkh08jpPSe-177" target="YpFx3Wl4ijLkh08jpPSe-169">
          <mxGeometry relative="1" as="geometry" />
        </mxCell>
        <mxCell id="YpFx3Wl4ijLkh08jpPSe-177" value="辅助线程" style="ellipse;whiteSpace=wrap;html=1;aspect=fixed;rounded=1;shadow=0;strokeColor=#2D7600;strokeWidth=1;fillColor=#60a917;fontColor=#ffffff;" vertex="1" parent="1">
          <mxGeometry x="551.25" y="2460" width="40" height="40" as="geometry" />
        </mxCell>
        <mxCell id="YpFx3Wl4ijLkh08jpPSe-179" value="共享内存" style="rounded=0;whiteSpace=wrap;html=1;shadow=0;strokeColor=#3700CC;strokeWidth=1;fillColor=#6a00ff;fontColor=#ffffff;" vertex="1" parent="1">
          <mxGeometry x="488.75" y="2530" width="112.5" height="40" as="geometry" />
        </mxCell>
        <mxCell id="YpFx3Wl4ijLkh08jpPSe-181" value="callgraph模块" style="text;html=1;strokeColor=none;fillColor=none;align=center;verticalAlign=middle;whiteSpace=wrap;rounded=0;shadow=0;" vertex="1" parent="1">
          <mxGeometry x="493.75" y="2420" width="90" height="20" as="geometry" />
        </mxCell>
        <mxCell id="YpFx3Wl4ijLkh08jpPSe-184" style="edgeStyle=orthogonalEdgeStyle;rounded=0;orthogonalLoop=1;jettySize=auto;html=1;exitX=0.5;exitY=1;exitDx=0;exitDy=0;entryX=0.209;entryY=-0.04;entryDx=0;entryDy=0;entryPerimeter=0;" edge="1" parent="1" source="YpFx3Wl4ijLkh08jpPSe-183" target="YpFx3Wl4ijLkh08jpPSe-179">
          <mxGeometry relative="1" as="geometry" />
        </mxCell>
        <mxCell id="YpFx3Wl4ijLkh08jpPSe-183" value="业务进程" style="ellipse;whiteSpace=wrap;html=1;aspect=fixed;rounded=1;shadow=0;strokeColor=#2D7600;strokeWidth=1;fillColor=#60a917;fontColor=#ffffff;" vertex="1" parent="1">
          <mxGeometry x="493.75" y="2460" width="40" height="40" as="geometry" />
        </mxCell>
        <mxCell id="YpFx3Wl4ijLkh08jpPSe-186" value="" style="endArrow=classic;html=1;entryX=0.5;entryY=1;entryDx=0;entryDy=0;" edge="1" parent="1" target="YpFx3Wl4ijLkh08jpPSe-177">
          <mxGeometry width="50" height="50" relative="1" as="geometry">
            <mxPoint x="571.75" y="2530" as="sourcePoint" />
            <mxPoint x="593.75" y="2500" as="targetPoint" />
          </mxGeometry>
        </mxCell>
        <mxCell id="YpFx3Wl4ijLkh08jpPSe-23" style="edgeStyle=orthogonalEdgeStyle;rounded=0;orthogonalLoop=1;jettySize=auto;html=1;" edge="1" parent="1" source="YpFx3Wl4ijLkh08jpPSe-3" target="YpFx3Wl4ijLkh08jpPSe-4">
          <mxGeometry relative="1" as="geometry" />
        </mxCell>
        <mxCell id="YpFx3Wl4ijLkh08jpPSe-3" value="" style="rounded=1;whiteSpace=wrap;html=1;fillColor=#60a917;strokeColor=#2D7600;fontColor=#ffffff;" vertex="1" parent="1">
          <mxGeometry x="90" y="10" width="120" height="220" as="geometry" />
        </mxCell>
        <mxCell id="YpFx3Wl4ijLkh08jpPSe-24" style="edgeStyle=orthogonalEdgeStyle;rounded=0;orthogonalLoop=1;jettySize=auto;html=1;" edge="1" parent="1" source="YpFx3Wl4ijLkh08jpPSe-4" target="YpFx3Wl4ijLkh08jpPSe-5">
          <mxGeometry relative="1" as="geometry" />
        </mxCell>
        <mxCell id="YpFx3Wl4ijLkh08jpPSe-26" style="edgeStyle=orthogonalEdgeStyle;rounded=0;orthogonalLoop=1;jettySize=auto;html=1;entryX=1;entryY=0.5;entryDx=0;entryDy=0;" edge="1" parent="1" source="YpFx3Wl4ijLkh08jpPSe-4" target="YpFx3Wl4ijLkh08jpPSe-3">
          <mxGeometry relative="1" as="geometry" />
        </mxCell>
        <mxCell id="YpFx3Wl4ijLkh08jpPSe-4" value="" style="rounded=1;whiteSpace=wrap;html=1;fillColor=#1ba1e2;strokeColor=#006EAF;fontColor=#ffffff;" vertex="1" parent="1">
          <mxGeometry x="290" y="10" width="120" height="220" as="geometry" />
        </mxCell>
        <mxCell id="YpFx3Wl4ijLkh08jpPSe-25" style="edgeStyle=orthogonalEdgeStyle;rounded=0;orthogonalLoop=1;jettySize=auto;html=1;entryX=1;entryY=0.5;entryDx=0;entryDy=0;" edge="1" parent="1" source="YpFx3Wl4ijLkh08jpPSe-5" target="YpFx3Wl4ijLkh08jpPSe-4">
          <mxGeometry relative="1" as="geometry" />
        </mxCell>
        <mxCell id="YpFx3Wl4ijLkh08jpPSe-5" value="" style="rounded=1;whiteSpace=wrap;html=1;fillColor=#e3c800;strokeColor=#B09500;fontColor=#000000;" vertex="1" parent="1">
          <mxGeometry x="500" y="10" width="120" height="220" as="geometry" />
        </mxCell>
        <mxCell id="YpFx3Wl4ijLkh08jpPSe-6" value="&lt;font style=&quot;font-size: 14px&quot;&gt;logtraceweb&lt;/font&gt;" style="text;html=1;strokeColor=none;fillColor=none;align=center;verticalAlign=middle;whiteSpace=wrap;rounded=0;" vertex="1" parent="1">
          <mxGeometry x="105" y="20" width="80" height="30" as="geometry" />
        </mxCell>
        <mxCell id="YpFx3Wl4ijLkh08jpPSe-7" value="VUE+ElementUI" style="rounded=1;whiteSpace=wrap;html=1;fillColor=#d5e8d4;strokeColor=#82b366;" vertex="1" parent="1">
          <mxGeometry x="100" y="70" width="90" height="50" as="geometry" />
        </mxCell>
        <mxCell id="YpFx3Wl4ijLkh08jpPSe-9" value="echarts" style="rounded=1;whiteSpace=wrap;html=1;fillColor=#d5e8d4;strokeColor=#82b366;" vertex="1" parent="1">
          <mxGeometry x="100" y="140" width="90" height="50" as="geometry" />
        </mxCell>
        <mxCell id="YpFx3Wl4ijLkh08jpPSe-10" value="&lt;font style=&quot;font-size: 14px&quot;&gt;logtrace logicsvr&lt;/font&gt;" style="text;html=1;strokeColor=none;fillColor=none;align=center;verticalAlign=middle;whiteSpace=wrap;rounded=0;" vertex="1" parent="1">
          <mxGeometry x="305" y="20" width="90" height="30" as="geometry" />
        </mxCell>
        <mxCell id="YpFx3Wl4ijLkh08jpPSe-12" value="CGI POST" style="rounded=1;whiteSpace=wrap;html=1;fillColor=#dae8fc;strokeColor=#6c8ebf;" vertex="1" parent="1">
          <mxGeometry x="305" y="60" width="90" height="50" as="geometry" />
        </mxCell>
        <mxCell id="YpFx3Wl4ijLkh08jpPSe-13" value="JSONTOPB" style="rounded=1;whiteSpace=wrap;html=1;fillColor=#dae8fc;strokeColor=#6c8ebf;" vertex="1" parent="1">
          <mxGeometry x="305" y="140" width="90" height="50" as="geometry" />
        </mxCell>
        <mxCell id="YpFx3Wl4ijLkh08jpPSe-15" value="&lt;font style=&quot;font-size: 14px&quot;&gt;&lt;b&gt;Json&lt;/b&gt;&lt;/font&gt;" style="text;html=1;strokeColor=none;fillColor=none;align=center;verticalAlign=middle;whiteSpace=wrap;rounded=0;" vertex="1" parent="1">
          <mxGeometry x="230" y="85" width="40" height="20" as="geometry" />
        </mxCell>
        <mxCell id="YpFx3Wl4ijLkh08jpPSe-18" value="日志数据" style="rounded=1;whiteSpace=wrap;html=1;fillColor=#dae8fc;strokeColor=#6c8ebf;" vertex="1" parent="1">
          <mxGeometry x="527.5" y="160" width="75" height="30" as="geometry" />
        </mxCell>
        <mxCell id="YpFx3Wl4ijLkh08jpPSe-20" value="&lt;font style=&quot;font-size: 14px&quot;&gt;logtrace query&lt;/font&gt;" style="text;html=1;strokeColor=none;fillColor=none;align=center;verticalAlign=middle;whiteSpace=wrap;rounded=0;" vertex="1" parent="1">
          <mxGeometry x="515" y="20" width="90" height="30" as="geometry" />
        </mxCell>
        <mxCell id="YpFx3Wl4ijLkh08jpPSe-21" value="&lt;font style=&quot;font-size: 14px&quot;&gt;&lt;b&gt;ProtoBuf&lt;/b&gt;&lt;/font&gt;" style="text;html=1;strokeColor=none;fillColor=none;align=center;verticalAlign=middle;whiteSpace=wrap;rounded=0;" vertex="1" parent="1">
          <mxGeometry x="440" y="85" width="40" height="20" as="geometry" />
        </mxCell>
        <mxCell id="YpFx3Wl4ijLkh08jpPSe-30" style="edgeStyle=orthogonalEdgeStyle;rounded=0;orthogonalLoop=1;jettySize=auto;html=1;exitX=0.5;exitY=1;exitDx=0;exitDy=0;entryX=0.5;entryY=0;entryDx=0;entryDy=0;" edge="1" parent="1" source="YpFx3Wl4ijLkh08jpPSe-27" target="YpFx3Wl4ijLkh08jpPSe-18">
          <mxGeometry relative="1" as="geometry" />
        </mxCell>
        <mxCell id="YpFx3Wl4ijLkh08jpPSe-27" value="日志index" style="rounded=1;whiteSpace=wrap;html=1;fillColor=#dae8fc;strokeColor=#6c8ebf;" vertex="1" parent="1">
          <mxGeometry x="527.5" y="110" width="75" height="30" as="geometry" />
        </mxCell>
        <mxCell id="YpFx3Wl4ijLkh08jpPSe-29" style="edgeStyle=orthogonalEdgeStyle;rounded=0;orthogonalLoop=1;jettySize=auto;html=1;exitX=0.5;exitY=1;exitDx=0;exitDy=0;entryX=0.5;entryY=0;entryDx=0;entryDy=0;" edge="1" parent="1" source="YpFx3Wl4ijLkh08jpPSe-28" target="YpFx3Wl4ijLkh08jpPSe-27">
          <mxGeometry relative="1" as="geometry" />
        </mxCell>
        <mxCell id="YpFx3Wl4ijLkh08jpPSe-28" value="日志时间范围" style="rounded=1;whiteSpace=wrap;html=1;fillColor=#dae8fc;strokeColor=#6c8ebf;" vertex="1" parent="1">
          <mxGeometry x="527.5" y="60" width="75" height="30" as="geometry" />
        </mxCell>
        <mxCell id="YpFx3Wl4ijLkh08jpPSe-37" style="edgeStyle=orthogonalEdgeStyle;rounded=0;orthogonalLoop=1;jettySize=auto;html=1;entryX=0;entryY=0.5;entryDx=0;entryDy=0;startArrow=none;" edge="1" parent="1" source="YpFx3Wl4ijLkh08jpPSe-50" target="YpFx3Wl4ijLkh08jpPSe-33">
          <mxGeometry relative="1" as="geometry" />
        </mxCell>
        <mxCell id="YpFx3Wl4ijLkh08jpPSe-38" style="edgeStyle=orthogonalEdgeStyle;rounded=0;orthogonalLoop=1;jettySize=auto;html=1;entryX=0;entryY=0.5;entryDx=0;entryDy=0;" edge="1" parent="1" source="YpFx3Wl4ijLkh08jpPSe-32" target="YpFx3Wl4ijLkh08jpPSe-35">
          <mxGeometry relative="1" as="geometry">
            <Array as="points">
              <mxPoint x="280" y="555" />
              <mxPoint x="280" y="450" />
            </Array>
          </mxGeometry>
        </mxCell>
        <mxCell id="YpFx3Wl4ijLkh08jpPSe-54" style="edgeStyle=orthogonalEdgeStyle;rounded=0;orthogonalLoop=1;jettySize=auto;html=1;entryX=0;entryY=0.5;entryDx=0;entryDy=0;startArrow=none;" edge="1" parent="1" source="YpFx3Wl4ijLkh08jpPSe-55" target="YpFx3Wl4ijLkh08jpPSe-34">
          <mxGeometry relative="1" as="geometry" />
        </mxCell>
        <mxCell id="YpFx3Wl4ijLkh08jpPSe-32" value="Logtrace日志查询" style="text;html=1;strokeColor=none;fillColor=none;align=center;verticalAlign=middle;whiteSpace=wrap;rounded=0;" vertex="1" parent="1">
          <mxGeometry x="95" y="530" width="110" height="50" as="geometry" />
        </mxCell>
        <mxCell id="YpFx3Wl4ijLkh08jpPSe-42" style="edgeStyle=orthogonalEdgeStyle;rounded=0;orthogonalLoop=1;jettySize=auto;html=1;entryX=0.5;entryY=0;entryDx=0;entryDy=0;" edge="1" parent="1" source="YpFx3Wl4ijLkh08jpPSe-33" target="YpFx3Wl4ijLkh08jpPSe-34">
          <mxGeometry relative="1" as="geometry" />
        </mxCell>
        <mxCell id="YpFx3Wl4ijLkh08jpPSe-49" style="edgeStyle=orthogonalEdgeStyle;rounded=0;orthogonalLoop=1;jettySize=auto;html=1;entryX=0;entryY=0.5;entryDx=0;entryDy=0;" edge="1" parent="1" source="YpFx3Wl4ijLkh08jpPSe-33" target="YpFx3Wl4ijLkh08jpPSe-44">
          <mxGeometry relative="1" as="geometry" />
        </mxCell>
        <mxCell id="YpFx3Wl4ijLkh08jpPSe-33" value="日志索引" style="rounded=0;whiteSpace=wrap;html=1;fillColor=#dae8fc;strokeColor=#6c8ebf;" vertex="1" parent="1">
          <mxGeometry x="350" y="535" width="130" height="40" as="geometry" />
        </mxCell>
        <mxCell id="YpFx3Wl4ijLkh08jpPSe-58" style="edgeStyle=orthogonalEdgeStyle;rounded=0;orthogonalLoop=1;jettySize=auto;html=1;entryX=0;entryY=0.5;entryDx=0;entryDy=0;" edge="1" parent="1" source="YpFx3Wl4ijLkh08jpPSe-34" target="YpFx3Wl4ijLkh08jpPSe-45">
          <mxGeometry relative="1" as="geometry" />
        </mxCell>
        <mxCell id="YpFx3Wl4ijLkh08jpPSe-34" value="完整日志" style="rounded=0;whiteSpace=wrap;html=1;fillColor=#dae8fc;strokeColor=#6c8ebf;" vertex="1" parent="1">
          <mxGeometry x="350" y="630" width="130" height="40" as="geometry" />
        </mxCell>
        <mxCell id="YpFx3Wl4ijLkh08jpPSe-40" style="edgeStyle=orthogonalEdgeStyle;rounded=0;orthogonalLoop=1;jettySize=auto;html=1;" edge="1" parent="1" source="YpFx3Wl4ijLkh08jpPSe-35" target="YpFx3Wl4ijLkh08jpPSe-33">
          <mxGeometry relative="1" as="geometry" />
        </mxCell>
        <mxCell id="YpFx3Wl4ijLkh08jpPSe-48" style="edgeStyle=orthogonalEdgeStyle;rounded=0;orthogonalLoop=1;jettySize=auto;html=1;entryX=0;entryY=0.5;entryDx=0;entryDy=0;" edge="1" parent="1" source="YpFx3Wl4ijLkh08jpPSe-35" target="YpFx3Wl4ijLkh08jpPSe-44">
          <mxGeometry relative="1" as="geometry" />
        </mxCell>
        <mxCell id="YpFx3Wl4ijLkh08jpPSe-35" value="根据searchid搜索相关联的日志" style="rounded=0;whiteSpace=wrap;html=1;fillColor=#dae8fc;strokeColor=#6c8ebf;" vertex="1" parent="1">
          <mxGeometry x="350" y="430" width="130" height="40" as="geometry" />
        </mxCell>
        <mxCell id="YpFx3Wl4ijLkh08jpPSe-44" value="返回日志索引" style="ellipse;whiteSpace=wrap;html=1;fillColor=#d5e8d4;strokeColor=#82b366;" vertex="1" parent="1">
          <mxGeometry x="680" y="410" width="120" height="80" as="geometry" />
        </mxCell>
        <mxCell id="YpFx3Wl4ijLkh08jpPSe-45" value="返回完整日志" style="ellipse;whiteSpace=wrap;html=1;fillColor=#d5e8d4;strokeColor=#82b366;" vertex="1" parent="1">
          <mxGeometry x="680" y="610" width="120" height="80" as="geometry" />
        </mxCell>
        <mxCell id="YpFx3Wl4ijLkh08jpPSe-50" value="普通查询" style="text;html=1;strokeColor=none;fillColor=none;align=center;verticalAlign=middle;whiteSpace=wrap;rounded=0;" vertex="1" parent="1">
          <mxGeometry x="290" y="542.5" width="50" height="25" as="geometry" />
        </mxCell>
        <mxCell id="YpFx3Wl4ijLkh08jpPSe-51" value="" style="edgeStyle=orthogonalEdgeStyle;rounded=0;orthogonalLoop=1;jettySize=auto;html=1;entryX=0;entryY=0.5;entryDx=0;entryDy=0;endArrow=none;" edge="1" parent="1" source="YpFx3Wl4ijLkh08jpPSe-32" target="YpFx3Wl4ijLkh08jpPSe-50">
          <mxGeometry relative="1" as="geometry">
            <mxPoint x="205" y="555" as="sourcePoint" />
            <mxPoint x="350" y="555" as="targetPoint" />
          </mxGeometry>
        </mxCell>
        <mxCell id="YpFx3Wl4ijLkh08jpPSe-53" value="根据searchid查询" style="text;html=1;strokeColor=none;fillColor=none;align=center;verticalAlign=middle;whiteSpace=wrap;rounded=0;" vertex="1" parent="1">
          <mxGeometry x="290" y="430" width="50" height="30" as="geometry" />
        </mxCell>
        <mxCell id="YpFx3Wl4ijLkh08jpPSe-55" value="根据日志key查询" style="text;html=1;strokeColor=none;fillColor=none;align=center;verticalAlign=middle;whiteSpace=wrap;rounded=0;" vertex="1" parent="1">
          <mxGeometry x="290" y="640" width="40" height="20" as="geometry" />
        </mxCell>
        <mxCell id="YpFx3Wl4ijLkh08jpPSe-56" value="" style="edgeStyle=orthogonalEdgeStyle;rounded=0;orthogonalLoop=1;jettySize=auto;html=1;entryX=0;entryY=0.5;entryDx=0;entryDy=0;endArrow=none;" edge="1" parent="1" source="YpFx3Wl4ijLkh08jpPSe-32" target="YpFx3Wl4ijLkh08jpPSe-55">
          <mxGeometry relative="1" as="geometry">
            <mxPoint x="205" y="555" as="sourcePoint" />
            <mxPoint x="350" y="650" as="targetPoint" />
            <Array as="points">
              <mxPoint x="280" y="555" />
              <mxPoint x="280" y="650" />
            </Array>
          </mxGeometry>
        </mxCell>
        <mxCell id="YpFx3Wl4ijLkh08jpPSe-59" value="" style="endArrow=classic;html=1;exitX=0.25;exitY=0;exitDx=0;exitDy=0;" edge="1" parent="1" source="YpFx3Wl4ijLkh08jpPSe-53">
          <mxGeometry width="50" height="50" relative="1" as="geometry">
            <mxPoint x="205" y="410" as="sourcePoint" />
            <mxPoint x="160" y="370" as="targetPoint" />
            <Array as="points">
              <mxPoint x="180" y="380" />
            </Array>
          </mxGeometry>
        </mxCell>
        <mxCell id="YpFx3Wl4ijLkh08jpPSe-64" value="" style="endArrow=classic;html=1;exitX=0.25;exitY=0;exitDx=0;exitDy=0;" edge="1" parent="1">
          <mxGeometry width="50" height="50" relative="1" as="geometry">
            <mxPoint x="290" y="535" as="sourcePoint" />
            <mxPoint x="168" y="370" as="targetPoint" />
            <Array as="points" />
          </mxGeometry>
        </mxCell>
        <mxCell id="YpFx3Wl4ijLkh08jpPSe-66" value="只有这种查询才会返回完整的日志" style="text;html=1;strokeColor=none;fillColor=none;align=center;verticalAlign=middle;whiteSpace=wrap;rounded=0;" vertex="1" parent="1">
          <mxGeometry x="120" y="780" width="105" height="70" as="geometry" />
        </mxCell>
        <mxCell id="YpFx3Wl4ijLkh08jpPSe-69" value="" style="endArrow=classic;html=1;exitX=0;exitY=1;exitDx=0;exitDy=0;" edge="1" parent="1" source="YpFx3Wl4ijLkh08jpPSe-55">
          <mxGeometry width="50" height="50" relative="1" as="geometry">
            <mxPoint x="210" y="750" as="sourcePoint" />
            <mxPoint x="190" y="780" as="targetPoint" />
            <Array as="points">
              <mxPoint x="190" y="780" />
            </Array>
          </mxGeometry>
        </mxCell>
        <mxCell id="YpFx3Wl4ijLkh08jpPSe-70" value="这两种查询方式都返回的是日志的一个索引" style="text;html=1;strokeColor=none;fillColor=none;align=center;verticalAlign=middle;whiteSpace=wrap;rounded=0;" vertex="1" parent="1">
          <mxGeometry x="105" y="310" width="105" height="70" as="geometry" />
        </mxCell>
        <mxCell id="YpFx3Wl4ijLkh08jpPSe-71" value="" style="whiteSpace=wrap;html=1;aspect=fixed;fillColor=#dae8fc;strokeColor=#6c8ebf;" vertex="1" parent="1">
          <mxGeometry x="276.87" y="1331.87" width="313.13" height="313.13" as="geometry" />
        </mxCell>
        <mxCell id="YpFx3Wl4ijLkh08jpPSe-86" style="edgeStyle=orthogonalEdgeStyle;rounded=0;orthogonalLoop=1;jettySize=auto;html=1;entryX=0;entryY=0.5;entryDx=0;entryDy=0;" edge="1" parent="1" source="YpFx3Wl4ijLkh08jpPSe-72" target="YpFx3Wl4ijLkh08jpPSe-83">
          <mxGeometry relative="1" as="geometry" />
        </mxCell>
        <mxCell id="YpFx3Wl4ijLkh08jpPSe-72" value="普通日志缓存&lt;br&gt;(k,v)-&amp;gt;(uin,日志索引链表)" style="rounded=1;whiteSpace=wrap;html=1;fillColor=#fff2cc;strokeColor=#d6b656;strokeWidth=1;shadow=0;" vertex="1" parent="1">
          <mxGeometry x="408.75" y="1381.87" width="150" height="60" as="geometry" />
        </mxCell>
        <mxCell id="YpFx3Wl4ijLkh08jpPSe-85" style="edgeStyle=orthogonalEdgeStyle;rounded=0;orthogonalLoop=1;jettySize=auto;html=1;exitX=1;exitY=0.5;exitDx=0;exitDy=0;entryX=0;entryY=0.5;entryDx=0;entryDy=0;" edge="1" parent="1" source="YpFx3Wl4ijLkh08jpPSe-73" target="YpFx3Wl4ijLkh08jpPSe-83">
          <mxGeometry relative="1" as="geometry" />
        </mxCell>
        <mxCell id="YpFx3Wl4ijLkh08jpPSe-73" value="详细日志缓存&lt;br&gt;(k,v)-&amp;gt;(日志key,完整日志)" style="rounded=1;whiteSpace=wrap;html=1;fillColor=#fff2cc;strokeColor=#d6b656;" vertex="1" parent="1">
          <mxGeometry x="408.75" y="1461.87" width="150" height="60" as="geometry" />
        </mxCell>
        <mxCell id="YpFx3Wl4ijLkh08jpPSe-84" style="edgeStyle=orthogonalEdgeStyle;rounded=0;orthogonalLoop=1;jettySize=auto;html=1;exitX=1;exitY=0.5;exitDx=0;exitDy=0;entryX=0;entryY=0.5;entryDx=0;entryDy=0;" edge="1" parent="1" source="YpFx3Wl4ijLkh08jpPSe-74" target="YpFx3Wl4ijLkh08jpPSe-83">
          <mxGeometry relative="1" as="geometry" />
        </mxCell>
        <mxCell id="YpFx3Wl4ijLkh08jpPSe-74" value="searchid缓存&lt;br&gt;(k,v)-&amp;gt;(searchid,日志索引数组)" style="rounded=1;whiteSpace=wrap;html=1;fillColor=#fff2cc;strokeColor=#d6b656;strokeWidth=1;shadow=0;" vertex="1" parent="1">
          <mxGeometry x="408.75" y="1541.87" width="150" height="50" as="geometry" />
        </mxCell>
        <mxCell id="YpFx3Wl4ijLkh08jpPSe-76" style="edgeStyle=orthogonalEdgeStyle;rounded=0;orthogonalLoop=1;jettySize=auto;html=1;entryX=0;entryY=0.5;entryDx=0;entryDy=0;" edge="1" parent="1" source="YpFx3Wl4ijLkh08jpPSe-75" target="YpFx3Wl4ijLkh08jpPSe-72">
          <mxGeometry relative="1" as="geometry" />
        </mxCell>
        <mxCell id="YpFx3Wl4ijLkh08jpPSe-78" style="edgeStyle=orthogonalEdgeStyle;rounded=0;orthogonalLoop=1;jettySize=auto;html=1;entryX=0;entryY=0.5;entryDx=0;entryDy=0;" edge="1" parent="1" source="YpFx3Wl4ijLkh08jpPSe-75" target="YpFx3Wl4ijLkh08jpPSe-73">
          <mxGeometry relative="1" as="geometry" />
        </mxCell>
        <mxCell id="YpFx3Wl4ijLkh08jpPSe-79" style="edgeStyle=orthogonalEdgeStyle;rounded=0;orthogonalLoop=1;jettySize=auto;html=1;entryX=0;entryY=0.5;entryDx=0;entryDy=0;" edge="1" parent="1" source="YpFx3Wl4ijLkh08jpPSe-75" target="YpFx3Wl4ijLkh08jpPSe-74">
          <mxGeometry relative="1" as="geometry" />
        </mxCell>
        <mxCell id="YpFx3Wl4ijLkh08jpPSe-87" style="edgeStyle=orthogonalEdgeStyle;rounded=0;orthogonalLoop=1;jettySize=auto;html=1;entryX=0.5;entryY=1;entryDx=0;entryDy=0;" edge="1" parent="1" source="YpFx3Wl4ijLkh08jpPSe-75" target="YpFx3Wl4ijLkh08jpPSe-83">
          <mxGeometry relative="1" as="geometry">
            <Array as="points">
              <mxPoint x="317" y="1611.87" />
              <mxPoint x="700" y="1611.87" />
            </Array>
          </mxGeometry>
        </mxCell>
        <mxCell id="YpFx3Wl4ijLkh08jpPSe-75" value="logtrace web" style="ellipse;whiteSpace=wrap;html=1;aspect=fixed;rounded=1;shadow=0;strokeColor=#d6b656;strokeWidth=1;fillColor=#fff2cc;" vertex="1" parent="1">
          <mxGeometry x="276.87" y="1451.87" width="80" height="80" as="geometry" />
        </mxCell>
        <mxCell id="YpFx3Wl4ijLkh08jpPSe-82" style="edgeStyle=orthogonalEdgeStyle;rounded=0;orthogonalLoop=1;jettySize=auto;html=1;entryX=0;entryY=0.5;entryDx=0;entryDy=0;" edge="1" parent="1" source="YpFx3Wl4ijLkh08jpPSe-80" target="YpFx3Wl4ijLkh08jpPSe-75">
          <mxGeometry relative="1" as="geometry" />
        </mxCell>
        <mxCell id="YpFx3Wl4ijLkh08jpPSe-80" value="Actor" style="shape=umlActor;verticalLabelPosition=bottom;verticalAlign=top;html=1;outlineConnect=0;rounded=1;shadow=0;strokeColor=#d6b656;strokeWidth=1;fillColor=#fff2cc;" vertex="1" parent="1">
          <mxGeometry x="150" y="1461.87" width="30" height="60" as="geometry" />
        </mxCell>
        <mxCell id="YpFx3Wl4ijLkh08jpPSe-88" style="edgeStyle=orthogonalEdgeStyle;rounded=0;orthogonalLoop=1;jettySize=auto;html=1;" edge="1" parent="1" source="YpFx3Wl4ijLkh08jpPSe-83">
          <mxGeometry relative="1" as="geometry">
            <mxPoint x="560" y="1491.87" as="targetPoint" />
          </mxGeometry>
        </mxCell>
        <mxCell id="YpFx3Wl4ijLkh08jpPSe-89" style="edgeStyle=orthogonalEdgeStyle;rounded=0;orthogonalLoop=1;jettySize=auto;html=1;entryX=1;entryY=0.5;entryDx=0;entryDy=0;" edge="1" parent="1" source="YpFx3Wl4ijLkh08jpPSe-83" target="YpFx3Wl4ijLkh08jpPSe-74">
          <mxGeometry relative="1" as="geometry" />
        </mxCell>
        <mxCell id="YpFx3Wl4ijLkh08jpPSe-90" style="edgeStyle=orthogonalEdgeStyle;rounded=0;orthogonalLoop=1;jettySize=auto;html=1;entryX=1;entryY=0.5;entryDx=0;entryDy=0;" edge="1" parent="1" source="YpFx3Wl4ijLkh08jpPSe-83" target="YpFx3Wl4ijLkh08jpPSe-72">
          <mxGeometry relative="1" as="geometry" />
        </mxCell>
        <mxCell id="YpFx3Wl4ijLkh08jpPSe-83" value="logtrace query" style="whiteSpace=wrap;html=1;aspect=fixed;rounded=1;shadow=0;strokeColor=#d6b656;strokeWidth=1;fillColor=#fff2cc;" vertex="1" parent="1">
          <mxGeometry x="660" y="1451.87" width="80" height="80" as="geometry" />
        </mxCell>
        <mxCell id="YpFx3Wl4ijLkh08jpPSe-93" value="查询" style="text;html=1;strokeColor=none;fillColor=none;align=center;verticalAlign=middle;whiteSpace=wrap;rounded=0;shadow=0;" vertex="1" parent="1">
          <mxGeometry x="355" y="1471.87" width="40" height="20" as="geometry" />
        </mxCell>
        <mxCell id="YpFx3Wl4ijLkh08jpPSe-94" value="查询和缓存日志" style="text;html=1;strokeColor=none;fillColor=none;align=center;verticalAlign=middle;whiteSpace=wrap;rounded=0;shadow=0;" vertex="1" parent="1">
          <mxGeometry x="610" y="1451.87" width="50" height="40" as="geometry" />
        </mxCell>
        <mxCell id="YpFx3Wl4ijLkh08jpPSe-95" value="查询" style="text;html=1;strokeColor=none;fillColor=none;align=center;verticalAlign=middle;whiteSpace=wrap;rounded=0;shadow=0;" vertex="1" parent="1">
          <mxGeometry x="340" y="1591.87" width="40" height="20" as="geometry" />
        </mxCell>
        <mxCell id="YpFx3Wl4ijLkh08jpPSe-96" value="" style="rounded=0;whiteSpace=wrap;html=1;shadow=0;strokeColor=#A50040;strokeWidth=1;fillColor=#d80073;fontColor=#ffffff;" vertex="1" parent="1">
          <mxGeometry x="690" y="1740" width="30" height="200" as="geometry" />
        </mxCell>
        <mxCell id="YpFx3Wl4ijLkh08jpPSe-97" value="list" style="text;html=1;strokeColor=none;fillColor=none;align=center;verticalAlign=middle;whiteSpace=wrap;rounded=0;shadow=0;" vertex="1" parent="1">
          <mxGeometry x="688.75" y="1800" width="30" height="20" as="geometry" />
        </mxCell>
        <mxCell id="YpFx3Wl4ijLkh08jpPSe-99" value="" style="shape=curlyBracket;whiteSpace=wrap;html=1;rounded=1;shadow=0;strokeColor=#A50040;strokeWidth=1;fillColor=#d80073;fontColor=#ffffff;" vertex="1" parent="1">
          <mxGeometry x="650" y="1740" width="20" height="200" as="geometry" />
        </mxCell>
        <mxCell id="YpFx3Wl4ijLkh08jpPSe-100" value="已缓存的日志" style="text;html=1;strokeColor=none;fillColor=none;align=center;verticalAlign=middle;whiteSpace=wrap;rounded=0;shadow=0;" vertex="1" parent="1">
          <mxGeometry x="610" y="1830" width="40" height="20" as="geometry" />
        </mxCell>
        <mxCell id="YpFx3Wl4ijLkh08jpPSe-101" value="" style="endArrow=classic;html=1;" edge="1" parent="1" target="YpFx3Wl4ijLkh08jpPSe-102">
          <mxGeometry width="50" height="50" relative="1" as="geometry">
            <mxPoint x="690" y="1740" as="sourcePoint" />
            <mxPoint x="610" y="1740" as="targetPoint" />
          </mxGeometry>
        </mxCell>
        <mxCell id="YpFx3Wl4ijLkh08jpPSe-102" value="缓存内最近的日志时间" style="text;html=1;strokeColor=none;fillColor=none;align=center;verticalAlign=middle;whiteSpace=wrap;rounded=0;shadow=0;" vertex="1" parent="1">
          <mxGeometry x="573.43" y="1730" width="40" height="20" as="geometry" />
        </mxCell>
        <mxCell id="YpFx3Wl4ijLkh08jpPSe-103" value="" style="endArrow=classic;html=1;" edge="1" parent="1">
          <mxGeometry width="50" height="50" relative="1" as="geometry">
            <mxPoint x="690" y="1940" as="sourcePoint" />
            <mxPoint x="620" y="1940" as="targetPoint" />
            <Array as="points">
              <mxPoint x="640" y="1940" />
            </Array>
          </mxGeometry>
        </mxCell>
        <mxCell id="YpFx3Wl4ijLkh08jpPSe-104" value="缓存内最老的日志时间" style="text;html=1;strokeColor=none;fillColor=none;align=center;verticalAlign=middle;whiteSpace=wrap;rounded=0;shadow=0;" vertex="1" parent="1">
          <mxGeometry x="573.43" y="1930" width="40" height="20" as="geometry" />
        </mxCell>
        <mxCell id="YpFx3Wl4ijLkh08jpPSe-106" value="情况2" style="rounded=0;whiteSpace=wrap;html=1;shadow=0;strokeColor=#82b366;strokeWidth=1;fillColor=#d5e8d4;" vertex="1" parent="1">
          <mxGeometry x="230" y="1645" width="30" height="90" as="geometry" />
        </mxCell>
        <mxCell id="YpFx3Wl4ijLkh08jpPSe-109" value="情况1" style="rounded=0;whiteSpace=wrap;html=1;shadow=0;strokeColor=#b85450;strokeWidth=1;fillColor=#f8cecc;" vertex="1" parent="1">
          <mxGeometry x="230" y="1885" width="30" height="80" as="geometry" />
        </mxCell>
        <mxCell id="YpFx3Wl4ijLkh08jpPSe-112" value="" style="endArrow=classic;html=1;" edge="1" parent="1">
          <mxGeometry width="50" height="50" relative="1" as="geometry">
            <mxPoint x="258.75" y="1645" as="sourcePoint" />
            <mxPoint x="328.75" y="1645" as="targetPoint" />
          </mxGeometry>
        </mxCell>
        <mxCell id="YpFx3Wl4ijLkh08jpPSe-115" value="" style="endArrow=classic;html=1;" edge="1" parent="1">
          <mxGeometry width="50" height="50" relative="1" as="geometry">
            <mxPoint x="260" y="1734.31" as="sourcePoint" />
            <mxPoint x="330" y="1734.31" as="targetPoint" />
          </mxGeometry>
        </mxCell>
        <mxCell id="YpFx3Wl4ijLkh08jpPSe-116" value="" style="endArrow=classic;html=1;" edge="1" parent="1">
          <mxGeometry width="50" height="50" relative="1" as="geometry">
            <mxPoint x="260" y="1965" as="sourcePoint" />
            <mxPoint x="330" y="1965" as="targetPoint" />
          </mxGeometry>
        </mxCell>
        <mxCell id="YpFx3Wl4ijLkh08jpPSe-117" value="" style="endArrow=classic;html=1;" edge="1" parent="1">
          <mxGeometry width="50" height="50" relative="1" as="geometry">
            <mxPoint x="260" y="1885" as="sourcePoint" />
            <mxPoint x="330" y="1885" as="targetPoint" />
          </mxGeometry>
        </mxCell>
        <mxCell id="YpFx3Wl4ijLkh08jpPSe-118" value="查询最老的日志时间" style="text;html=1;strokeColor=none;fillColor=none;align=center;verticalAlign=middle;whiteSpace=wrap;rounded=0;shadow=0;" vertex="1" parent="1">
          <mxGeometry x="330" y="1735" width="40" height="20" as="geometry" />
        </mxCell>
        <mxCell id="YpFx3Wl4ijLkh08jpPSe-119" value="查询最近的日志时间" style="text;html=1;strokeColor=none;fillColor=none;align=center;verticalAlign=middle;whiteSpace=wrap;rounded=0;shadow=0;" vertex="1" parent="1">
          <mxGeometry x="327" y="1635" width="40" height="20" as="geometry" />
        </mxCell>
        <mxCell id="YpFx3Wl4ijLkh08jpPSe-120" value="查询最新的日志时间" style="text;html=1;strokeColor=none;fillColor=none;align=center;verticalAlign=middle;whiteSpace=wrap;rounded=0;shadow=0;" vertex="1" parent="1">
          <mxGeometry x="330" y="1875" width="40" height="20" as="geometry" />
        </mxCell>
        <mxCell id="YpFx3Wl4ijLkh08jpPSe-121" value="查询最老的日志时间" style="text;html=1;strokeColor=none;fillColor=none;align=center;verticalAlign=middle;whiteSpace=wrap;rounded=0;shadow=0;" vertex="1" parent="1">
          <mxGeometry x="330" y="1965" width="40" height="20" as="geometry" />
        </mxCell>
        <mxCell id="YpFx3Wl4ijLkh08jpPSe-124" style="edgeStyle=orthogonalEdgeStyle;rounded=0;orthogonalLoop=1;jettySize=auto;html=1;entryX=0;entryY=0.5;entryDx=0;entryDy=0;" edge="1" parent="1" source="YpFx3Wl4ijLkh08jpPSe-122" target="YpFx3Wl4ijLkh08jpPSe-123">
          <mxGeometry relative="1" as="geometry" />
        </mxCell>
        <mxCell id="YpFx3Wl4ijLkh08jpPSe-122" value="情况3" style="rounded=0;whiteSpace=wrap;html=1;shadow=0;strokeColor=#d6b656;strokeWidth=1;fillColor=#fff2cc;" vertex="1" parent="1">
          <mxGeometry x="230" y="1805" width="30" height="60" as="geometry" />
        </mxCell>
        <mxCell id="YpFx3Wl4ijLkh08jpPSe-123" value="查询的日志区间在缓存内" style="text;html=1;strokeColor=none;fillColor=none;align=center;verticalAlign=middle;whiteSpace=wrap;rounded=0;shadow=0;" vertex="1" parent="1">
          <mxGeometry x="327" y="1825" width="40" height="20" as="geometry" />
        </mxCell>
        <mxCell id="YpFx3Wl4ijLkh08jpPSe-130" value="情况5" style="rounded=0;whiteSpace=wrap;html=1;shadow=0;strokeColor=#d6b656;strokeWidth=1;fillColor=#fff2cc;" vertex="1" parent="1">
          <mxGeometry x="690" y="1970" width="30" height="60" as="geometry" />
        </mxCell>
        <mxCell id="YpFx3Wl4ijLkh08jpPSe-131" value="" style="shape=curlyBracket;whiteSpace=wrap;html=1;rounded=1;flipH=1;shadow=0;strokeColor=#82b366;strokeWidth=1;fillColor=#d5e8d4;size=0.5;" vertex="1" parent="1">
          <mxGeometry x="260" y="1645" width="20" height="70" as="geometry" />
        </mxCell>
        <mxCell id="YpFx3Wl4ijLkh08jpPSe-132" value="gap!" style="text;html=1;strokeColor=none;fillColor=none;align=center;verticalAlign=middle;whiteSpace=wrap;rounded=0;shadow=0;" vertex="1" parent="1">
          <mxGeometry x="270" y="1672.5" width="40" height="15" as="geometry" />
        </mxCell>
        <mxCell id="YpFx3Wl4ijLkh08jpPSe-134" value="" style="shape=curlyBracket;whiteSpace=wrap;html=1;rounded=1;flipH=1;shadow=0;strokeColor=#b85450;strokeWidth=1;fillColor=#f8cecc;size=0.5;" vertex="1" parent="1">
          <mxGeometry x="258.75" y="1915" width="20" height="50" as="geometry" />
        </mxCell>
        <mxCell id="YpFx3Wl4ijLkh08jpPSe-135" value="gap!" style="text;html=1;strokeColor=none;fillColor=none;align=center;verticalAlign=middle;whiteSpace=wrap;rounded=0;shadow=0;" vertex="1" parent="1">
          <mxGeometry x="270" y="1930" width="40" height="20" as="geometry" />
        </mxCell>
        <mxCell id="YpFx3Wl4ijLkh08jpPSe-136" value="" style="shape=curlyBracket;whiteSpace=wrap;html=1;rounded=1;flipH=1;shadow=0;strokeColor=#d6b656;strokeWidth=1;fillColor=#fff2cc;size=0.5;" vertex="1" parent="1">
          <mxGeometry x="720" y="1940" width="20" height="30" as="geometry" />
        </mxCell>
        <mxCell id="YpFx3Wl4ijLkh08jpPSe-138" value="" style="endArrow=classic;html=1;entryX=0;entryY=0.5;entryDx=0;entryDy=0;" edge="1" parent="1" target="YpFx3Wl4ijLkh08jpPSe-139">
          <mxGeometry width="50" height="50" relative="1" as="geometry">
            <mxPoint x="250" y="1040" as="sourcePoint" />
            <mxPoint x="320" y="1040" as="targetPoint" />
          </mxGeometry>
        </mxCell>
        <mxCell id="YpFx3Wl4ijLkh08jpPSe-141" value="上报数据" style="edgeLabel;html=1;align=center;verticalAlign=middle;resizable=0;points=[];" vertex="1" connectable="0" parent="YpFx3Wl4ijLkh08jpPSe-138">
          <mxGeometry x="0.2533" y="-2" relative="1" as="geometry">
            <mxPoint x="-14" y="-2" as="offset" />
          </mxGeometry>
        </mxCell>
        <mxCell id="YpFx3Wl4ijLkh08jpPSe-143" style="edgeStyle=orthogonalEdgeStyle;rounded=0;orthogonalLoop=1;jettySize=auto;html=1;entryX=0;entryY=0.5;entryDx=0;entryDy=0;" edge="1" parent="1" source="YpFx3Wl4ijLkh08jpPSe-139" target="YpFx3Wl4ijLkh08jpPSe-142">
          <mxGeometry relative="1" as="geometry" />
        </mxCell>
        <mxCell id="YpFx3Wl4ijLkh08jpPSe-139" value="mmdata" style="rounded=0;whiteSpace=wrap;html=1;shadow=0;strokeColor=#b85450;strokeWidth=1;fillColor=#f8cecc;" vertex="1" parent="1">
          <mxGeometry x="340" y="1010" width="120" height="60" as="geometry" />
        </mxCell>
        <mxCell id="YpFx3Wl4ijLkh08jpPSe-140" value="logtrace" style="rounded=0;whiteSpace=wrap;html=1;shadow=0;strokeColor=#6c8ebf;strokeWidth=1;fillColor=#dae8fc;" vertex="1" parent="1">
          <mxGeometry x="150" y="1010" width="120" height="60" as="geometry" />
        </mxCell>
        <mxCell id="YpFx3Wl4ijLkh08jpPSe-142" value="wfs" style="rounded=0;whiteSpace=wrap;html=1;shadow=0;strokeColor=#d6b656;strokeWidth=1;fillColor=#fff2cc;" vertex="1" parent="1">
          <mxGeometry x="510" y="1010" width="120" height="60" as="geometry" />
        </mxCell>
        <mxCell id="YpFx3Wl4ijLkh08jpPSe-144" value="出库" style="text;html=1;strokeColor=none;fillColor=none;align=center;verticalAlign=middle;whiteSpace=wrap;rounded=0;shadow=0;" vertex="1" parent="1">
          <mxGeometry x="463.75" y="1020" width="40" height="20" as="geometry" />
        </mxCell>
        <mxCell id="YpFx3Wl4ijLkh08jpPSe-146" style="edgeStyle=orthogonalEdgeStyle;rounded=0;orthogonalLoop=1;jettySize=auto;html=1;entryX=0.5;entryY=0;entryDx=0;entryDy=0;" edge="1" parent="1" source="YpFx3Wl4ijLkh08jpPSe-145" target="YpFx3Wl4ijLkh08jpPSe-142">
          <mxGeometry relative="1" as="geometry" />
        </mxCell>
        <mxCell id="YpFx3Wl4ijLkh08jpPSe-150" style="edgeStyle=orthogonalEdgeStyle;rounded=0;orthogonalLoop=1;jettySize=auto;html=1;entryX=1;entryY=0.5;entryDx=0;entryDy=0;" edge="1" parent="1" source="YpFx3Wl4ijLkh08jpPSe-145" target="YpFx3Wl4ijLkh08jpPSe-149">
          <mxGeometry relative="1" as="geometry" />
        </mxCell>
        <mxCell id="YpFx3Wl4ijLkh08jpPSe-145" value="gemini&lt;br&gt;计算" style="ellipse;whiteSpace=wrap;html=1;aspect=fixed;rounded=1;shadow=0;strokeColor=#2D7600;strokeWidth=1;fillColor=#60a917;fontColor=#ffffff;" vertex="1" parent="1">
          <mxGeometry x="530" y="880" width="80" height="80" as="geometry" />
        </mxCell>
        <mxCell id="YpFx3Wl4ijLkh08jpPSe-147" value="捞取数据" style="text;html=1;strokeColor=none;fillColor=none;align=center;verticalAlign=middle;whiteSpace=wrap;rounded=0;shadow=0;" vertex="1" parent="1">
          <mxGeometry x="530" y="970" width="40" height="20" as="geometry" />
        </mxCell>
        <mxCell id="YpFx3Wl4ijLkh08jpPSe-149" value="msqyl" style="whiteSpace=wrap;html=1;aspect=fixed;rounded=1;shadow=0;strokeColor=#d6b656;strokeWidth=1;fillColor=#fff2cc;" vertex="1" parent="1">
          <mxGeometry x="375" y="880" width="80" height="80" as="geometry" />
        </mxCell>
        <mxCell id="YpFx3Wl4ijLkh08jpPSe-151" value="插入" style="text;html=1;strokeColor=none;fillColor=none;align=center;verticalAlign=middle;whiteSpace=wrap;rounded=0;shadow=0;" vertex="1" parent="1">
          <mxGeometry x="475" y="900" width="40" height="20" as="geometry" />
        </mxCell>
        <mxCell id="YpFx3Wl4ijLkh08jpPSe-154" style="edgeStyle=orthogonalEdgeStyle;rounded=0;orthogonalLoop=1;jettySize=auto;html=1;entryX=0;entryY=0.5;entryDx=0;entryDy=0;" edge="1" parent="1" source="YpFx3Wl4ijLkh08jpPSe-152" target="YpFx3Wl4ijLkh08jpPSe-153">
          <mxGeometry relative="1" as="geometry" />
        </mxCell>
        <mxCell id="YpFx3Wl4ijLkh08jpPSe-152" value="Actor" style="shape=umlActor;verticalLabelPosition=bottom;verticalAlign=top;html=1;outlineConnect=0;rounded=1;shadow=0;strokeColor=#d6b656;strokeWidth=1;fillColor=#fff2cc;" vertex="1" parent="1">
          <mxGeometry x="105" y="890" width="30" height="60" as="geometry" />
        </mxCell>
        <mxCell id="YpFx3Wl4ijLkh08jpPSe-155" style="edgeStyle=orthogonalEdgeStyle;rounded=0;orthogonalLoop=1;jettySize=auto;html=1;entryX=0;entryY=0.5;entryDx=0;entryDy=0;" edge="1" parent="1" source="YpFx3Wl4ijLkh08jpPSe-153" target="YpFx3Wl4ijLkh08jpPSe-149">
          <mxGeometry relative="1" as="geometry" />
        </mxCell>
        <mxCell id="YpFx3Wl4ijLkh08jpPSe-153" value="logtrace web" style="ellipse;whiteSpace=wrap;html=1;aspect=fixed;rounded=1;shadow=0;strokeColor=#d6b656;strokeWidth=1;fillColor=#fff2cc;" vertex="1" parent="1">
          <mxGeometry x="205" y="880" width="80" height="80" as="geometry" />
        </mxCell>
        <mxCell id="YpFx3Wl4ijLkh08jpPSe-156" value="调用耗时图" style="text;html=1;strokeColor=none;fillColor=none;align=center;verticalAlign=middle;whiteSpace=wrap;rounded=0;shadow=0;" vertex="1" parent="1">
          <mxGeometry x="152.5" y="900" width="40" height="20" as="geometry" />
        </mxCell>
        <mxCell id="YpFx3Wl4ijLkh08jpPSe-157" value="查询数据构造耗时图" style="text;html=1;strokeColor=none;fillColor=none;align=center;verticalAlign=middle;whiteSpace=wrap;rounded=0;shadow=0;" vertex="1" parent="1">
          <mxGeometry x="300" y="900" width="40" height="20" as="geometry" />
        </mxCell>
        <mxCell id="YpFx3Wl4ijLkh08jpPSe-158" value="" style="endArrow=classic;html=1;entryX=0;entryY=0.5;entryDx=0;entryDy=0;" edge="1" parent="1" target="YpFx3Wl4ijLkh08jpPSe-183">
          <mxGeometry width="50" height="50" relative="1" as="geometry">
            <mxPoint x="352.5" y="2480" as="sourcePoint" />
            <mxPoint x="442.5" y="2480" as="targetPoint" />
          </mxGeometry>
        </mxCell>
        <mxCell id="YpFx3Wl4ijLkh08jpPSe-159" value="传输数据" style="edgeLabel;html=1;align=center;verticalAlign=middle;resizable=0;points=[];" vertex="1" connectable="0" parent="YpFx3Wl4ijLkh08jpPSe-158">
          <mxGeometry x="0.2533" y="-2" relative="1" as="geometry">
            <mxPoint x="-14" y="-2" as="offset" />
          </mxGeometry>
        </mxCell>
        <mxCell id="YpFx3Wl4ijLkh08jpPSe-162" value="logtrace mq" style="rounded=0;whiteSpace=wrap;html=1;shadow=0;strokeColor=#6c8ebf;strokeWidth=1;fillColor=#dae8fc;" vertex="1" parent="1">
          <mxGeometry x="252.5" y="2450" width="120" height="60" as="geometry" />
        </mxCell>
        <mxCell id="YpFx3Wl4ijLkh08jpPSe-169" value="mysql" style="whiteSpace=wrap;html=1;aspect=fixed;rounded=1;shadow=0;strokeColor=#d6b656;strokeWidth=1;fillColor=#fff2cc;" vertex="1" parent="1">
          <mxGeometry x="531.25" y="2290" width="80" height="80" as="geometry" />
        </mxCell>
        <mxCell id="YpFx3Wl4ijLkh08jpPSe-171" style="edgeStyle=orthogonalEdgeStyle;rounded=0;orthogonalLoop=1;jettySize=auto;html=1;entryX=0;entryY=0.5;entryDx=0;entryDy=0;" edge="1" parent="1" source="YpFx3Wl4ijLkh08jpPSe-172" target="YpFx3Wl4ijLkh08jpPSe-174">
          <mxGeometry relative="1" as="geometry" />
        </mxCell>
        <mxCell id="YpFx3Wl4ijLkh08jpPSe-172" value="karana天才" style="shape=umlActor;verticalLabelPosition=bottom;verticalAlign=top;html=1;outlineConnect=0;rounded=1;shadow=0;strokeColor=#d6b656;strokeWidth=1;fillColor=#fff2cc;" vertex="1" parent="1">
          <mxGeometry x="220" y="2300" width="30" height="60" as="geometry" />
        </mxCell>
        <mxCell id="YpFx3Wl4ijLkh08jpPSe-173" style="edgeStyle=orthogonalEdgeStyle;rounded=0;orthogonalLoop=1;jettySize=auto;html=1;entryX=0;entryY=0.5;entryDx=0;entryDy=0;" edge="1" parent="1" source="YpFx3Wl4ijLkh08jpPSe-174" target="YpFx3Wl4ijLkh08jpPSe-169">
          <mxGeometry relative="1" as="geometry" />
        </mxCell>
        <mxCell id="YpFx3Wl4ijLkh08jpPSe-174" value="logtrace web" style="ellipse;whiteSpace=wrap;html=1;aspect=fixed;rounded=1;shadow=0;strokeColor=#d6b656;strokeWidth=1;fillColor=#fff2cc;" vertex="1" parent="1">
          <mxGeometry x="320" y="2290" width="80" height="80" as="geometry" />
        </mxCell>
        <mxCell id="YpFx3Wl4ijLkh08jpPSe-175" value="调用耗时图" style="text;html=1;strokeColor=none;fillColor=none;align=center;verticalAlign=middle;whiteSpace=wrap;rounded=0;shadow=0;" vertex="1" parent="1">
          <mxGeometry x="267.5" y="2310" width="40" height="20" as="geometry" />
        </mxCell>
        <mxCell id="YpFx3Wl4ijLkh08jpPSe-176" value="查询数据构造耗时图" style="text;html=1;strokeColor=none;fillColor=none;align=center;verticalAlign=middle;whiteSpace=wrap;rounded=0;shadow=0;" vertex="1" parent="1">
          <mxGeometry x="415" y="2310" width="75" height="20" as="geometry" />
        </mxCell>
        <mxCell id="YpFx3Wl4ijLkh08jpPSe-180" value="kv" style="rhombus;whiteSpace=wrap;html=1;rounded=1;shadow=0;strokeColor=#A50040;strokeWidth=1;fillColor=#d80073;fontColor=#ffffff;" vertex="1" parent="1">
          <mxGeometry x="490" y="2740" width="80" height="80" as="geometry" />
        </mxCell>
        <mxCell id="YpFx3Wl4ijLkh08jpPSe-188" value="定时刷新到mysql" style="text;html=1;strokeColor=none;fillColor=none;align=center;verticalAlign=middle;whiteSpace=wrap;rounded=0;shadow=0;" vertex="1" parent="1">
          <mxGeometry x="573.43" y="2380" width="66.57" height="20" as="geometry" />
        </mxCell>
        <mxCell id="YpFx3Wl4ijLkh08jpPSe-194" style="edgeStyle=orthogonalEdgeStyle;rounded=0;orthogonalLoop=1;jettySize=auto;html=1;" edge="1" parent="1" source="YpFx3Wl4ijLkh08jpPSe-189" target="YpFx3Wl4ijLkh08jpPSe-191">
          <mxGeometry relative="1" as="geometry" />
        </mxCell>
        <mxCell id="YpFx3Wl4ijLkh08jpPSe-201" value="写入需要&lt;br&gt;更新的数据" style="edgeLabel;html=1;align=center;verticalAlign=middle;resizable=0;points=[];" vertex="1" connectable="0" parent="YpFx3Wl4ijLkh08jpPSe-194">
          <mxGeometry x="-0.2719" y="-2" relative="1" as="geometry">
            <mxPoint as="offset" />
          </mxGeometry>
        </mxCell>
        <mxCell id="YpFx3Wl4ijLkh08jpPSe-202" style="edgeStyle=orthogonalEdgeStyle;rounded=0;orthogonalLoop=1;jettySize=auto;html=1;entryX=0;entryY=0.5;entryDx=0;entryDy=0;" edge="1" parent="1" source="YpFx3Wl4ijLkh08jpPSe-189" target="YpFx3Wl4ijLkh08jpPSe-180">
          <mxGeometry relative="1" as="geometry">
            <mxPoint x="287.5" y="2770" as="targetPoint" />
          </mxGeometry>
        </mxCell>
        <mxCell id="YpFx3Wl4ijLkh08jpPSe-189" value="业务进程" style="whiteSpace=wrap;html=1;aspect=fixed;rounded=1;shadow=0;strokeColor=#d6b656;strokeWidth=1;fillColor=#fff2cc;" vertex="1" parent="1">
          <mxGeometry x="247.5" y="2860" width="80" height="80" as="geometry" />
        </mxCell>
        <mxCell id="YpFx3Wl4ijLkh08jpPSe-191" value="" style="rounded=0;whiteSpace=wrap;html=1;shadow=0;strokeColor=#2D7600;strokeWidth=1;fillColor=#60a917;fontColor=#ffffff;" vertex="1" parent="1">
          <mxGeometry x="471.25" y="2870" width="168.75" height="60" as="geometry" />
        </mxCell>
        <mxCell id="YpFx3Wl4ijLkh08jpPSe-192" value="刷新线程" style="whiteSpace=wrap;html=1;aspect=fixed;rounded=1;shadow=0;strokeColor=#d6b656;strokeWidth=1;fillColor=#fff2cc;" vertex="1" parent="1">
          <mxGeometry x="710" y="2860" width="80" height="80" as="geometry" />
        </mxCell>
        <mxCell id="YpFx3Wl4ijLkh08jpPSe-197" value="Text" style="text;html=1;strokeColor=none;fillColor=none;align=center;verticalAlign=middle;whiteSpace=wrap;rounded=0;shadow=0;" vertex="1" parent="1">
          <mxGeometry x="660" y="2720" width="40" height="20" as="geometry" />
        </mxCell>
        <mxCell id="YpFx3Wl4ijLkh08jpPSe-198" value="" style="rounded=0;whiteSpace=wrap;html=1;shadow=0;strokeColor=#006EAF;strokeWidth=1;fillColor=#1ba1e2;fontColor=#ffffff;" vertex="1" parent="1">
          <mxGeometry x="583.75" y="2880" width="33" height="30" as="geometry" />
        </mxCell>
        <mxCell id="YpFx3Wl4ijLkh08jpPSe-199" value="" style="rounded=0;whiteSpace=wrap;html=1;shadow=0;strokeColor=#006EAF;strokeWidth=1;fillColor=#1ba1e2;fontColor=#ffffff;" vertex="1" parent="1">
          <mxGeometry x="537" y="2880" width="33" height="30" as="geometry" />
        </mxCell>
        <mxCell id="YpFx3Wl4ijLkh08jpPSe-200" value="" style="rounded=0;whiteSpace=wrap;html=1;shadow=0;strokeColor=#006EAF;strokeWidth=1;fillColor=#1ba1e2;fontColor=#ffffff;" vertex="1" parent="1">
          <mxGeometry x="494.5" y="2880" width="33" height="30" as="geometry" />
        </mxCell>
        <mxCell id="YpFx3Wl4ijLkh08jpPSe-209" style="edgeStyle=orthogonalEdgeStyle;rounded=0;orthogonalLoop=1;jettySize=auto;html=1;" edge="1" parent="1" source="YpFx3Wl4ijLkh08jpPSe-203" target="YpFx3Wl4ijLkh08jpPSe-208">
          <mxGeometry relative="1" as="geometry" />
        </mxCell>
        <mxCell id="YpFx3Wl4ijLkh08jpPSe-203" value="mq" style="whiteSpace=wrap;html=1;aspect=fixed;rounded=1;shadow=0;strokeColor=#d6b656;strokeWidth=1;fillColor=#fff2cc;" vertex="1" parent="1">
          <mxGeometry x="315" y="3040" width="80" height="80" as="geometry" />
        </mxCell>
        <mxCell id="YpFx3Wl4ijLkh08jpPSe-211" style="edgeStyle=orthogonalEdgeStyle;rounded=0;orthogonalLoop=1;jettySize=auto;html=1;entryX=0;entryY=0.5;entryDx=0;entryDy=0;" edge="1" parent="1" source="YpFx3Wl4ijLkh08jpPSe-205" target="YpFx3Wl4ijLkh08jpPSe-208">
          <mxGeometry relative="1" as="geometry" />
        </mxCell>
        <mxCell id="YpFx3Wl4ijLkh08jpPSe-205" value="mq" style="whiteSpace=wrap;html=1;aspect=fixed;rounded=1;shadow=0;strokeColor=#d6b656;strokeWidth=1;fillColor=#fff2cc;" vertex="1" parent="1">
          <mxGeometry x="315" y="3250" width="80" height="80" as="geometry" />
        </mxCell>
        <mxCell id="YpFx3Wl4ijLkh08jpPSe-210" style="edgeStyle=orthogonalEdgeStyle;rounded=0;orthogonalLoop=1;jettySize=auto;html=1;entryX=0;entryY=0.5;entryDx=0;entryDy=0;" edge="1" parent="1" source="YpFx3Wl4ijLkh08jpPSe-206" target="YpFx3Wl4ijLkh08jpPSe-208">
          <mxGeometry relative="1" as="geometry" />
        </mxCell>
        <mxCell id="YpFx3Wl4ijLkh08jpPSe-206" value="mq" style="whiteSpace=wrap;html=1;aspect=fixed;rounded=1;shadow=0;strokeColor=#d6b656;strokeWidth=1;fillColor=#fff2cc;" vertex="1" parent="1">
          <mxGeometry x="315" y="3140" width="80" height="80" as="geometry" />
        </mxCell>
        <mxCell id="YpFx3Wl4ijLkh08jpPSe-208" value="" style="whiteSpace=wrap;html=1;aspect=fixed;rounded=1;shadow=0;strokeColor=#3700CC;strokeWidth=1;fillColor=#6a00ff;fontColor=#ffffff;" vertex="1" parent="1">
          <mxGeometry x="510" y="3105" width="150" height="150" as="geometry" />
        </mxCell>
        <mxCell id="YpFx3Wl4ijLkh08jpPSe-212" value="callgraph" style="text;html=1;strokeColor=none;fillColor=none;align=center;verticalAlign=middle;whiteSpace=wrap;rounded=0;shadow=0;" vertex="1" parent="1">
          <mxGeometry x="562.5" y="3105" width="40" height="20" as="geometry" />
        </mxCell>
        <mxCell id="YpFx3Wl4ijLkh08jpPSe-214" value="业务进程" style="rounded=1;whiteSpace=wrap;html=1;shadow=0;strokeColor=#2D7600;strokeWidth=1;fillColor=#60a917;fontColor=#ffffff;" vertex="1" parent="1">
          <mxGeometry x="517.5" y="3160" width="55" height="30" as="geometry" />
        </mxCell>
        <mxCell id="YpFx3Wl4ijLkh08jpPSe-215" value="" style="verticalLabelPosition=bottom;verticalAlign=top;html=1;shape=mxgraph.basic.arc;startAngle=0.3;endAngle=0.1;rounded=1;shadow=0;strokeColor=#A50040;strokeWidth=1;fillColor=#d80073;rotation=105;fontColor=#ffffff;" vertex="1" parent="1">
          <mxGeometry x="530" y="3130" width="28.75" height="30" as="geometry" />
        </mxCell>
        <mxCell id="YpFx3Wl4ijLkh08jpPSe-216" value="聚合" style="text;html=1;strokeColor=none;fillColor=none;align=center;verticalAlign=middle;whiteSpace=wrap;rounded=0;shadow=0;" vertex="1" parent="1">
          <mxGeometry x="522.5" y="3120" width="40" height="20" as="geometry" />
        </mxCell>
        <mxCell id="YpFx3Wl4ijLkh08jpPSe-217" value="共享内存" style="shape=process;whiteSpace=wrap;html=1;backgroundOutline=1;rounded=1;shadow=0;strokeColor=#C73500;strokeWidth=1;fillColor=#fa6800;fontColor=#000000;" vertex="1" parent="1">
          <mxGeometry x="522.5" y="3290" width="135" height="60" as="geometry" />
        </mxCell>
        <mxCell id="YpFx3Wl4ijLkh08jpPSe-219" value="" style="verticalLabelPosition=bottom;verticalAlign=top;html=1;shape=mxgraph.basic.arc;startAngle=0.3;endAngle=0.1;rounded=1;shadow=0;strokeColor=#A50040;strokeWidth=1;fillColor=#d80073;rotation=-75;fontColor=#ffffff;" vertex="1" parent="1">
          <mxGeometry x="583.75" y="3350" width="28.75" height="30" as="geometry" />
        </mxCell>
        <mxCell id="YpFx3Wl4ijLkh08jpPSe-220" value="聚合" style="text;html=1;strokeColor=none;fillColor=none;align=center;verticalAlign=middle;whiteSpace=wrap;rounded=0;shadow=0;" vertex="1" parent="1">
          <mxGeometry x="573.4300000000001" y="3380" width="40" height="20" as="geometry" />
        </mxCell>
        <mxCell id="YpFx3Wl4ijLkh08jpPSe-221" value="" style="endArrow=classic;html=1;entryX=0.183;entryY=-0.036;entryDx=0;entryDy=0;entryPerimeter=0;" edge="1" parent="1" target="YpFx3Wl4ijLkh08jpPSe-217">
          <mxGeometry width="50" height="50" relative="1" as="geometry">
            <mxPoint x="547.78" y="3190" as="sourcePoint" />
            <mxPoint x="547.78" y="3270" as="targetPoint" />
          </mxGeometry>
        </mxCell>
        <mxCell id="YpFx3Wl4ijLkh08jpPSe-227" style="edgeStyle=orthogonalEdgeStyle;rounded=0;orthogonalLoop=1;jettySize=auto;html=1;" edge="1" parent="1" source="YpFx3Wl4ijLkh08jpPSe-223" target="YpFx3Wl4ijLkh08jpPSe-226">
          <mxGeometry relative="1" as="geometry" />
        </mxCell>
        <mxCell id="YpFx3Wl4ijLkh08jpPSe-223" value="update线程" style="rounded=1;whiteSpace=wrap;html=1;shadow=0;strokeColor=#A50040;strokeWidth=1;fillColor=#d80073;fontColor=#ffffff;" vertex="1" parent="1">
          <mxGeometry x="591.25" y="3160" width="50" height="30" as="geometry" />
        </mxCell>
        <mxCell id="YpFx3Wl4ijLkh08jpPSe-224" value="" style="endArrow=classic;html=1;" edge="1" parent="1">
          <mxGeometry width="50" height="50" relative="1" as="geometry">
            <mxPoint x="616.75" y="3290" as="sourcePoint" />
            <mxPoint x="617" y="3190" as="targetPoint" />
          </mxGeometry>
        </mxCell>
        <mxCell id="YpFx3Wl4ijLkh08jpPSe-226" value="mysql" style="ellipse;whiteSpace=wrap;html=1;aspect=fixed;rounded=1;shadow=0;strokeColor=#6F0000;strokeWidth=1;fillColor=#a20025;fontColor=#ffffff;" vertex="1" parent="1">
          <mxGeometry x="710" y="3135" width="80" height="80" as="geometry" />
        </mxCell>
        <mxCell id="YpFx3Wl4ijLkh08jpPSe-229" value="定时刷新" style="text;html=1;strokeColor=none;fillColor=none;align=center;verticalAlign=middle;whiteSpace=wrap;rounded=0;shadow=0;" vertex="1" parent="1">
          <mxGeometry x="650" y="3150" width="50" height="20" as="geometry" />
        </mxCell>
        <mxCell id="YpFx3Wl4ijLkh08jpPSe-231" value="logtraceweb" style="text;html=1;strokeColor=none;fillColor=none;align=center;verticalAlign=middle;whiteSpace=wrap;rounded=0;shadow=0;" vertex="1" parent="1">
          <mxGeometry x="392.5" y="400" width="40" height="20" as="geometry" />
        </mxCell>
      </root>
    </mxGraphModel>
  </diagram>
</mxfile>
